<?xml version="1.0" encoding="UTF-8"?>
<svg width="97px" height="30px" viewBox="0 0 97 30" version="1.1" xmlns="http://www.w3.org/2000/svg" xmlns:xlink="http://www.w3.org/1999/xlink">
    <!-- Generator: Sketch 56.2 (81672) - https://sketch.com -->
    <title>Logo</title>
    <desc>Created with Sketch.</desc>
    <defs>
        <radialGradient cx="50%" cy="50%" fx="50%" fy="50%" r="324.302987%" gradientTransform="translate(0.500000,0.500000),scale(0.310790,1.000000),rotate(90.000000),translate(-0.500000,-0.500000)" id="radialGradient-1">
            <stop stop-color="#FF5A82" offset="0%"></stop>
            <stop stop-color="#F53B57" offset="100%"></stop>
        </radialGradient>
    </defs>
    <g id="Symbols" stroke="none" stroke-width="1" fill="none" fill-rule="evenodd">
        <g id="Mobile-Nav-Logged-In" transform="translate(-10.000000, -10.000000)" fill="url(#radialGradient-1)" fill-rule="nonzero">
            <g id="Logo-Coloured" transform="translate(10.000000, 10.000000)">
                <path d="M11.25,13.5642857 C11.4357152,13.5642857 11.5785709,13.6571419 11.6785714,13.8428571 C11.7785719,14.0285724 11.8285714,14.2642843 11.8285714,14.55 C11.8285714,14.9071446 11.7785719,15.1821419 11.6785714,15.375 C11.5785709,15.5678581 11.4214296,15.6999996 11.2071429,15.7714286 C10.3499957,16.0714286 9.407148,16.2428569 8.37857143,16.2857143 C8.09285571,17.4714345 7.55357539,18.4285714 6.76071429,19.1571429 C5.96785318,19.8857179 5.09286193,20.25 4.13571429,20.25 C2.69284993,20.25 1.64286043,19.7000055 0.985714286,18.6 C0.328568143,17.5 0,15.9071533 0,13.8214286 C0,11.9785622 0.228569143,9.97501082 0.685714286,7.81071429 C1.14285943,5.64641775 1.81070989,3.80357904 2.68928571,2.28214286 C3.56786154,0.760706679 4.61427964,0 5.82857143,0 C6.48571757,0 7.01428371,0.282140036 7.41428571,0.846428571 C7.81428771,1.41071711 8.01428571,2.14285264 8.01428571,3.04285714 C8.01428571,4.21429157 7.79285936,5.37856564 7.35,6.53571429 C6.90714064,7.69286293 6.17143371,8.9071365 5.14285714,10.1785714 C6.10000479,10.2500004 6.87856843,10.646425 7.47857143,11.3678571 C8.07857443,12.0892893 8.43571371,12.9785661 8.55,14.0357143 C9.22143193,13.9928569 10.0214239,13.8500012 10.95,13.6071429 C11.0357147,13.5785713 11.1357137,13.5642857 11.25,13.5642857 Z M5.33571429,2.12142857 C5.04999857,2.12142857 4.73928739,2.54642432 4.40357143,3.39642857 C4.06785546,4.24643282 3.75714429,5.39999271 3.47142857,6.85714286 C3.18571286,8.314293 2.97142929,9.90713421 2.82857143,11.6357143 C3.77143329,9.90713421 4.52499718,8.38214946 5.08928571,7.06071429 C5.65357425,5.73927911 5.93571429,4.56429086 5.93571429,3.53571429 C5.93571429,3.07856914 5.88214339,2.72857264 5.775,2.48571429 C5.66785661,2.24285593 5.5214295,2.12142857 5.33571429,2.12142857 Z M4.22142857,17.9785714 C4.66428793,17.9785714 5.05714114,17.792859 5.4,17.4214286 C5.74285886,17.0499981 5.971428,16.5142892 6.08571429,15.8142857 C5.64285493,15.5142842 5.30357261,15.121431 5.06785714,14.6357143 C4.83214168,14.1499976 4.71428571,13.635717 4.71428571,13.0928571 C4.71428571,12.8928561 4.74285686,12.6214303 4.8,12.2785714 L4.73571429,12.2785714 C4.14999707,12.2785714 3.66071625,12.5678542 3.26785714,13.1464286 C2.87499804,13.7250029 2.67857143,14.4999951 2.67857143,15.4714286 C2.67857143,16.2857184 2.83214132,16.9071407 3.13928571,17.3357143 C3.44643011,17.7642879 3.80714079,17.9785714 4.22142857,17.9785714 Z M20.9142857,13.5642857 C21.1000009,13.5642857 21.2428566,13.6571419 21.3428571,13.8428571 C21.4428576,14.0285724 21.4928571,14.2642843 21.4928571,14.55 C21.4928571,15.2357177 21.2857164,15.6428565 20.8714286,15.7714286 C20.0142814,16.0714301 19.0714337,16.2428569 18.0428571,16.2857143 C17.7714272,17.4857203 17.2357183,18.446425 16.4357143,19.1678571 C15.6357103,19.8892893 14.7285765,20.25 13.7142857,20.25 C12.8571386,20.25 12.125003,20.0428592 11.5178571,19.6285714 C10.9107113,19.2142836 10.4500016,18.6642891 10.1357143,17.9785714 C9.821427,17.2928537 9.66428571,16.550004 9.66428571,15.75 C9.66428571,14.6642803 9.8714265,13.6964328 10.2857143,12.8464286 C10.7000021,11.9964243 11.2714249,11.3321453 12,10.8535714 C12.7285751,10.3749976 13.5357099,10.1357143 14.4214286,10.1357143 C15.5071483,10.1357143 16.3821395,10.5107105 17.0464286,11.2607143 C17.7107176,12.010718 18.0999994,12.9357088 18.2142857,14.0357143 C18.8857176,13.9928571 19.6857096,13.8500012 20.6142857,13.6071429 C20.728572,13.5785713 20.828571,13.5642857 20.9142857,13.5642857 Z M13.8857143,17.9785714 C14.3428571,17.9785714 14.739284,17.792859 15.075,17.4214286 C15.410716,17.0499981 15.6357137,16.5142892 15.75,15.8142857 C15.3071406,15.5142842 14.9678583,15.121431 14.7321429,14.6357143 C14.4964274,14.1499976 14.3785714,13.635717 14.3785714,13.0928571 C14.3785714,12.8642846 14.3999998,12.6357154 14.4428571,12.4071429 L14.3357143,12.4071429 C13.7642829,12.4071429 13.2892876,12.6821401 12.9107143,13.2321429 C12.532141,13.7821456 12.3428571,14.5571379 12.3428571,15.5571429 C12.3428571,16.3428611 12.496427,16.9428551 12.8035714,17.3571429 C13.1107158,17.7714306 13.4714265,17.9785714 13.8857143,17.9785714 Z M30.5785714,13.5642857 C30.7642866,13.5642857 30.9071424,13.6571419 31.0071429,13.8428571 C31.1071434,14.0285724 31.1571429,14.2642843 31.1571429,14.55 C31.1571429,15.2357177 30.9500021,15.6428565 30.5357143,15.7714286 C29.6785671,16.0714301 28.7357194,16.2428569 27.7071429,16.2857143 C27.4357129,17.4857203 26.900004,18.446425 26.1,19.1678571 C25.299996,19.8892893 24.3928622,20.25 23.3785714,20.25 C22.5214243,20.25 21.7892887,20.0428592 21.1821429,19.6285714 C20.574997,19.2142836 20.1142873,18.6642891 19.8,17.9785714 C19.4857127,17.2928537 19.3285714,16.550004 19.3285714,15.75 C19.3285714,14.6642803 19.5357122,13.6964328 19.95,12.8464286 C20.3642878,11.9964243 20.9357106,11.3321453 21.6642857,10.8535714 C22.3928608,10.3749976 23.1999956,10.1357143 24.0857143,10.1357143 C25.171434,10.1357143 26.0464252,10.5107105 26.7107143,11.2607143 C27.3750033,12.010718 27.7642851,12.9357088 27.8785714,14.0357143 C28.5500034,13.9928571 29.3499954,13.8500012 30.2785714,13.6071429 C30.3928577,13.5785713 30.4928567,13.5642857 30.5785714,13.5642857 Z M23.55,17.9785714 C24.0071429,17.9785714 24.4035697,17.792859 24.7392857,17.4214286 C25.0750017,17.0499981 25.2999994,16.5142892 25.4142857,15.8142857 C24.9714264,15.5142842 24.632144,15.121431 24.3964286,14.6357143 C24.1607131,14.1499976 24.0428571,13.635717 24.0428571,13.0928571 C24.0428571,12.8642846 24.0642855,12.6357154 24.1071429,12.4071429 L24,12.4071429 C23.4285686,12.4071429 22.9535733,12.6821401 22.575,13.2321429 C22.1964267,13.7821456 22.0071429,14.5571379 22.0071429,15.5571429 C22.0071429,16.3428611 22.1607127,16.9428551 22.4678571,17.3571429 C22.7750015,17.7714306 23.1357122,17.9785714 23.55,17.9785714 Z M41.7,15.3642857 C41.8857152,15.3642857 42.0321423,15.4499991 42.1392857,15.6214286 C42.2464291,15.792858 42.3,16.0285699 42.3,16.3285714 C42.3,16.9000029 42.1642871,17.3428556 41.8928571,17.6571429 C41.25,18.4428611 40.6000033,19.0714286 39.9428571,19.5428571 C39.285711,20.0142881 38.5071474,20.25 37.6071429,20.25 C36.5071374,20.25 35.6214319,19.9357174 34.95,19.3071429 C34.2785681,18.6785683 33.9428571,17.8428624 33.9428571,16.8 C33.9428571,16.2428544 34.2285686,15.8428584 34.8,15.6 C35.4285746,15.3285701 35.8785701,15.0392872 36.15,14.7321429 C36.4214299,14.4249985 36.5571429,14.0500022 36.5571429,13.6071429 C36.5571429,13.3499987 36.503572,13.1571435 36.3964286,13.0285714 C36.2892852,12.8999994 36.1571436,12.8357143 36,12.8357143 C35.6142838,12.8357143 35.189288,13.1142829 34.725,13.6714286 C34.260712,14.2285742 33.8285734,14.9464242 33.4285714,15.825 C33.0285694,16.7035758 32.7142869,17.6071382 32.4857143,18.5357143 C32.3285706,19.2071462 32.1464296,19.6607131 31.9392857,19.8964286 C31.7321418,20.132144 31.4071451,20.25 30.9642857,20.25 C30.5214264,20.25 30.1964296,20.0892873 29.9892857,19.7678571 C29.7821418,19.446427 29.6428575,18.9500034 29.5714286,18.2785714 C29.4999996,17.6071395 29.4642857,16.6214351 29.4642857,15.3214286 C29.4642857,13.1214176 29.6892835,10.8285834 30.1392857,8.44285714 C30.589288,6.05713093 31.253567,4.05357954 32.1321429,2.43214286 C33.0107187,0.810706179 34.0642796,0 35.2928571,0 C35.9500033,0 36.4821408,0.282140036 36.8892857,0.846428571 C37.2964306,1.41071711 37.5,2.14285264 37.5,3.04285714 C37.5,4.4857215 37.0785756,5.98213511 36.2357143,7.53214286 C35.3928529,9.08215061 34.0214381,10.8928468 32.1214286,12.9642857 C32.0785712,13.7071466 32.0571429,14.4714246 32.0571429,15.2571429 C32.7428606,13.4714196 33.528567,12.175004 34.4142857,11.3678571 C35.3000044,10.5607102 36.1285676,10.1571429 36.9,10.1571429 C37.6142893,10.1571429 38.1892835,10.3999976 38.625,10.8857143 C39.0607165,11.371431 39.2785714,11.971425 39.2785714,12.6857143 C39.2785714,13.4714325 39.0785734,14.1928539 38.6785714,14.85 C38.2785694,15.5071461 37.592862,16.0928546 36.6214286,16.6071429 C36.6785717,16.9928591 36.85357,17.3035702 37.1464286,17.5392857 C37.4392872,17.7750012 37.7928551,17.8928571 38.2071429,17.8928571 C38.6500022,17.8928571 39.0785694,17.7214303 39.4928571,17.3785714 C39.9071449,17.0357126 40.4499966,16.4642897 41.1214286,15.6642857 C41.292858,15.4642847 41.4857132,15.3642857 41.7,15.3642857 Z M34.8428571,2.12142857 C34.585713,2.12142857 34.3000016,2.48928204 33.9857143,3.225 C33.671427,3.96071796 33.3678586,4.95356518 33.075,6.20357143 C32.7821414,7.45357768 32.5428581,8.81427836 32.3571429,10.2857143 C33.2428616,9.24285193 33.9749971,8.107149 34.5535714,6.87857143 C35.1321457,5.64999386 35.4214286,4.53571929 35.4214286,3.53571429 C35.4214286,3.07856914 35.3714291,2.72857264 35.2714286,2.48571429 C35.1714281,2.24285593 35.0285724,2.12142857 34.8428571,2.12142857 Z M43.2,20.25 C42.3142813,20.25 41.6071455,19.9285746 41.0785714,19.2857143 C40.5499974,18.6428539 40.2857143,17.8000052 40.2857143,16.7571429 C40.2857143,15.6142857 40.5499974,14.532148 41.0785714,13.5107143 C41.6071455,12.4892806 42.3107099,11.6678603 43.1892857,11.0464286 C44.0678615,10.4249969 44.9999951,10.1142857 45.9857143,10.1142857 C46.3000016,10.1142857 46.5107137,10.1749994 46.6178571,10.2964286 C46.7250005,10.4178577 46.8142854,10.6357127 46.8857143,10.95 C47.1857158,10.8928569 47.4999984,10.8642857 47.8285714,10.8642857 C48.5285749,10.8642857 48.8785714,11.1142857 48.8785714,11.6142857 C48.8785714,11.9142872 48.7714296,12.6285658 48.5571429,13.7571429 C48.2285698,15.4000082 48.0642857,16.5428571 48.0642857,17.1857143 C48.0642857,17.4 48.1178566,17.5714279 48.225,17.7 C48.3321434,17.8285714 48.4714277,17.8928571 48.6428571,17.8928571 C48.9142871,17.8928571 49.2428552,17.7178589 49.6285714,17.3678571 C50.0142876,17.0178554 50.535711,16.4500039 51.1928571,15.6642857 C51.3642866,15.4642847 51.5571418,15.3642857 51.7714286,15.3642857 C51.9571438,15.3642857 52.1035709,15.4499991 52.2107143,15.6214286 C52.3178577,15.792858 52.3714286,16.0285699 52.3714286,16.3285714 C52.3714286,16.9000029 52.2357156,17.3428556 51.9642857,17.6571429 C51.3785685,18.3857179 50.7571461,18.9999975 50.1,19.5 C49.4428539,20.0000025 48.8071459,20.25 48.1928571,20.25 C47.7214262,20.25 47.2892877,20.0892873 46.8964286,19.7678571 C46.5035695,19.446427 46.2071439,19.0071456 46.0071429,18.45 C45.264282,19.650006 44.3285771,20.25 43.2,20.25 Z M43.9714286,18.0857143 C44.2857159,18.0857143 44.5857129,17.9000019 44.8714286,17.5285714 C45.1571443,17.157141 45.3642851,16.6642888 45.4928571,16.05 L46.2857143,12.1071429 C45.6857113,12.1214286 45.1321454,12.3464264 44.625,12.7821429 C44.1178546,13.2178593 43.7142872,13.7928536 43.4142857,14.5071429 C43.1142842,15.2214321 42.9642857,15.9785674 42.9642857,16.7785714 C42.9642857,17.2214308 43.0535705,17.5499989 43.2321429,17.7642857 C43.4107152,17.9785725 43.6571413,18.0857143 43.9714286,18.0857143 Z M54.6214286,20.7214286 C53.8785677,20.7214286 53.3107162,20.5500017 52.9178571,20.2071429 C52.524998,19.864284 52.3285714,19.4785736 52.3285714,19.05 C52.3285714,18.6785696 52.4642844,18.3571442 52.7357143,18.0857143 C53.0071442,17.8142844 53.4071402,17.6785714 53.9357143,17.6785714 C54.1214295,17.6785714 54.3392845,17.6964284 54.5892857,17.7321429 C54.839287,17.7678573 55.0285708,17.7928571 55.1571429,17.8071429 C55.1428571,17.4357124 55.060715,17.0857159 54.9107143,16.7571429 C54.7607135,16.4285698 54.5714297,16.1107158 54.3428571,15.8035714 C54.1142846,15.496427 53.900001,15.2285726 53.7,15 C53.2571406,15.8428614 52.8178593,16.5428544 52.3821429,17.1 C51.9464264,17.6571456 51.4714311,18.1857118 50.9571429,18.6857143 C50.6999987,18.9428584 50.4285729,19.0714286 50.1428571,19.0714286 C49.9142846,19.0714286 49.7285721,18.9892865 49.5857143,18.825 C49.4428564,18.6607135 49.3714286,18.4571441 49.3714286,18.2142857 C49.3714286,17.92857 49.4714276,17.6642869 49.6714286,17.4214286 L49.95,17.0785714 C50.7357182,16.107138 51.3285694,15.307146 51.7285714,14.6785714 C51.9714298,14.2642836 52.2571412,13.7107178 52.5857143,13.0178571 C52.9142874,12.3249965 53.2357127,11.6071466 53.55,10.8642857 C53.8214299,10.2357111 54.38571,9.92142857 55.2428571,9.92142857 C55.6428591,9.92142857 55.9214278,9.9571425 56.0785714,10.0285714 C56.2357151,10.1000004 56.3142857,10.2142849 56.3142857,10.3714286 C56.3142857,10.4571433 56.2857146,10.5928562 56.2285714,10.7785714 C56.1714283,10.9642866 56.0928576,11.1499991 55.9928571,11.3357143 C55.735713,11.85 55.6071429,12.2857125 55.6071429,12.6428571 C55.6071429,12.8571439 55.6821421,13.0928559 55.8321429,13.35 C55.9821436,13.6071441 56.2142841,13.9285695 56.5285714,14.3142857 C56.9857166,14.9142887 57.3321417,15.4249979 57.5678571,15.8464286 C57.8035726,16.2678592 57.9214286,16.7285689 57.9214286,17.2285714 C57.9214286,17.3714293 57.907143,17.5714273 57.8785714,17.8285714 C58.5785749,17.5571415 59.3999953,16.8357201 60.3428571,15.6642857 C60.5142857,15.4642847 60.7071418,15.3642857 60.9214286,15.3642857 C61.1071438,15.3642857 61.2535709,15.4499991 61.3607143,15.6214286 C61.4678577,15.792858 61.5214286,16.0285699 61.5214286,16.3285714 C61.5214286,16.8714313 61.3857156,17.314284 61.1142857,17.6571429 C60.3999964,18.5428616 59.7178604,19.146427 59.0678571,19.4678571 C58.4178539,19.7892873 57.6142905,19.9642856 56.6571429,19.9928571 C56.0857114,20.4785739 55.4071468,20.7214286 54.6214286,20.7214286 Z M71.2285714,15.3642857 C71.4142866,15.3642857 71.5607137,15.4499991 71.6678571,15.6214286 C71.7750005,15.792858 71.8285714,16.0285714 71.8285714,16.3285714 C71.8285714,16.9000029 71.6928585,17.3428556 71.4214286,17.6571429 C70.8071398,18.4142895 70.1464321,19.0357119 69.4392857,19.5214286 C68.7321393,20.0071453 67.9285759,20.25 67.0285714,20.25 C66.2714248,20.25 65.6571452,19.9785741 65.1857143,19.4357143 C64.3714245,19.9642884 63.521433,20.2357142 62.6357143,20.25 C62.4499991,23.0071566 62.0285747,25.310705 61.3714286,27.1607143 C60.7142824,29.0107235 59.7500064,29.9357143 58.4785714,29.9357143 C57.7071429,29.9357143 57.1357161,29.6571456 56.7642857,29.1 C56.3928553,28.5428544 56.2071429,27.7714335 56.2071429,26.7857143 C56.2071429,25.3857073 56.5285682,23.7535807 57.1714286,21.8892857 C57.8142889,20.0249907 58.8071361,17.9714398 60.15,15.7285714 C60.15,13.6428467 60.1357144,12.1928612 60.1071429,11.3785714 C60.0928571,10.9642836 60.2571411,10.6357155 60.6,10.3928571 C60.9428589,10.1499988 61.371426,10.0285714 61.8857143,10.0285714 C62.1857158,10.0285714 62.4035707,10.0892851 62.5392857,10.2107143 C62.6750007,10.3321435 62.7499999,10.5714268 62.7642857,10.9285714 C62.7642857,11.2857161 62.7714285,11.5499991 62.7857143,11.7214286 C63.2428594,11.1499971 63.6928549,10.739287 64.1357143,10.4892857 C64.5785736,10.2392845 65.0499975,10.1142857 65.55,10.1142857 C66.350004,10.1142857 67.0035689,10.4357111 67.5107143,11.0785714 C68.0178597,11.7214318 68.2714286,12.5642805 68.2714286,13.6071429 C68.2714286,14.3642895 68.1500012,15.0999964 67.9071429,15.8142857 C67.6642845,16.5285714 67.3285736,17.1785685 66.9,17.7642857 C67.2000015,17.8500004 67.449999,17.8928571 67.65,17.8928571 C68.1214309,17.8928571 68.5714264,17.7214303 69,17.3785714 C69.4285736,17.0357126 69.9785681,16.4642897 70.65,15.6642857 C70.8214294,15.4642847 71.0142846,15.3642857 71.2285714,15.3642857 Z M62.7428571,18.1928571 C63.2571454,18.0785709 63.7321407,17.7964308 64.1678571,17.3464286 C64.6035736,16.8964263 64.9499987,16.339289 65.2071429,15.675 C65.464287,15.010711 65.5928571,14.3142894 65.5928571,13.5857143 C65.5928571,13.1571407 65.5071437,12.832144 65.3357143,12.6107143 C65.1642849,12.3892846 64.9357157,12.2785714 64.65,12.2785714 C64.1357117,12.2785714 63.5142894,12.8214231 62.7857143,13.9071429 C62.7714285,14.5357174 62.7642857,15.4571368 62.7642857,16.6714286 C62.7642857,17.3285747 62.7571429,17.8357125 62.7428571,18.1928571 Z M58.65,27.8357143 C59.0357162,27.8357143 59.3571416,26.996437 59.6142857,25.3178571 C59.8714299,23.6392773 60.0357139,21.5500125 60.1071429,19.05 C59.4928541,20.4785786 59.0071446,21.8428506 58.65,23.1428571 C58.2928554,24.4428636 58.1142857,25.5357099 58.1142857,26.4214286 C58.1142857,26.8785737 58.1678566,27.2285702 58.275,27.4714286 C58.3821434,27.7142869 58.5071421,27.8357143 58.65,27.8357143 Z M72.7285714,20.25 C71.8428527,20.25 71.1357169,19.9285746 70.6071429,19.2857143 C70.0785688,18.6428539 69.8142857,17.8000052 69.8142857,16.7571429 C69.8142857,15.6142857 70.0785688,14.532148 70.6071429,13.5107143 C71.1357169,12.4892806 71.8392813,11.6678603 72.7178571,11.0464286 C73.596433,10.4249969 74.5285665,10.1142857 75.5142857,10.1142857 C75.828573,10.1142857 76.0392852,10.1749994 76.1464286,10.2964286 C76.253572,10.4178577 76.3428568,10.6357127 76.4142857,10.95 C76.7142872,10.8928569 77.0285698,10.8642857 77.3571429,10.8642857 C78.0571464,10.8642857 78.4071429,11.1142857 78.4071429,11.6142857 C78.4071429,11.9142872 78.3000011,12.6285658 78.0857143,13.7571429 C77.7571412,15.4000082 77.5928571,16.5428571 77.5928571,17.1857143 C77.5928571,17.4 77.646428,17.5714279 77.7535714,17.7 C77.8607148,17.8285714 77.9999991,17.8928571 78.1714286,17.8928571 C78.4428585,17.8928571 78.7714266,17.7178589 79.1571429,17.3678571 C79.5428591,17.0178554 80.0642824,16.4500039 80.7214286,15.6642857 C80.892858,15.4642847 81.0857132,15.3642857 81.3,15.3642857 C81.4857152,15.3642857 81.6321423,15.4499991 81.7392857,15.6214286 C81.8464291,15.792858 81.9,16.0285699 81.9,16.3285714 C81.9,16.9000029 81.7642871,17.3428556 81.4928571,17.6571429 C80.9071399,18.3857179 80.2857176,18.9999975 79.6285714,19.5 C78.9714253,20.0000025 78.3357174,20.25 77.7214286,20.25 C77.2499976,20.25 76.8178591,20.0892873 76.425,19.7678571 C76.0321409,19.446427 75.7357153,19.0071456 75.5357143,18.45 C74.7928534,19.650006 73.8571485,20.25 72.7285714,20.25 Z M73.5,18.0857143 C73.8142873,18.0857143 74.1142843,17.9000019 74.4,17.5285714 C74.6857157,17.157141 74.8928565,16.6642888 75.0214286,16.05 L75.8142857,12.1071429 C75.2142827,12.1214286 74.6607168,12.3464264 74.1535714,12.7821429 C73.646426,13.2178593 73.2428586,13.7928536 72.9428571,14.5071429 C72.6428556,15.2214321 72.4928571,15.9785674 72.4928571,16.7785714 C72.4928571,17.2214308 72.582142,17.5499989 72.7607143,17.7642857 C72.9392866,17.9785725 73.1857127,18.0857143 73.5,18.0857143 Z M84.2571429,20.25 C82.8571359,20.25 81.767861,19.8535754 80.9892857,19.0607143 C80.2107104,18.2678532 79.8214286,17.2214351 79.8214286,15.9214286 C79.8214286,14.7642799 80.0499977,13.7500044 80.5071429,12.8785714 C80.964288,12.0071385 81.5571392,11.3357166 82.2857143,10.8642857 C83.0142894,10.3928548 83.7785674,10.1571429 84.5785714,10.1571429 C85.3642896,10.1571429 85.9749978,10.3892834 86.4107143,10.8535714 C86.8464307,11.3178595 87.0642857,11.9142821 87.0642857,12.6428571 C87.0642857,13.2428601 86.9321442,13.7499979 86.6678571,14.1642857 C86.4035701,14.5785735 86.057145,14.7857143 85.6285714,14.7857143 C85.3571415,14.7857143 85.1392865,14.7214292 84.975,14.5928571 C84.8107135,14.4642851 84.7285714,14.2857154 84.7285714,14.0571429 C84.7285714,13.9571424 84.742857,13.8428578 84.7714286,13.7142857 C84.8000001,13.5857143 84.8214286,13.4928574 84.8357143,13.4357143 C84.9071432,13.2214275 84.9428571,13.0214295 84.9428571,12.8357143 C84.9428571,12.6499991 84.896429,12.5071434 84.8035714,12.4071429 C84.7107138,12.3071424 84.5785723,12.2571429 84.4071429,12.2571429 C84.0785698,12.2571429 83.77143,12.40357 83.4857143,12.6964286 C83.1999986,12.9892872 82.9714294,13.3857118 82.8,13.8857143 C82.6285706,14.3857168 82.5428571,14.9357113 82.5428571,15.5357143 C82.5428571,17.1928654 83.2642785,18.0214286 84.7071429,18.0214286 C85.2928601,18.0214286 85.9249966,17.825002 86.6035714,17.4321429 C87.2821462,17.0392837 87.9499967,16.4500039 88.6071429,15.6642857 C88.7785723,15.4642847 88.9714275,15.3642857 89.1857143,15.3642857 C89.3714295,15.3642857 89.5178566,15.4499991 89.625,15.6214286 C89.7321434,15.792858 89.7857143,16.0285699 89.7857143,16.3285714 C89.7857143,16.8714313 89.6500014,17.314284 89.3785714,17.6571429 C88.7071395,18.4857184 87.9035761,19.1249977 86.9678571,19.575 C86.0321382,20.0250023 85.1285758,20.25 84.2571429,20.25 Z M95.7214286,16.0071429 C95.9071438,16.0071429 96.0535709,16.0928563 96.1607143,16.2642857 C96.2678577,16.4357151 96.3214286,16.6714271 96.3214286,16.9714286 C96.3214286,17.4857169 96.2000012,17.9285696 95.9571429,18.3 C95.5571409,18.9142888 95.0321461,19.3928554 94.3821429,19.7357143 C93.7321396,20.0785731 92.9571474,20.25 92.0571429,20.25 C90.6857074,20.25 89.6214324,19.8392898 88.8642857,19.0178571 C88.1071391,18.1964245 87.7285714,17.0857213 87.7285714,15.6857143 C87.7285714,14.6999951 87.9357122,13.7821471 88.35,12.9321429 C88.7642878,12.0821386 89.339282,11.4071454 90.075,10.9071429 C90.810718,10.4071404 91.6428525,10.1571429 92.5714286,10.1571429 C93.4000041,10.1571429 94.0642832,10.403569 94.5642857,10.8964286 C95.0642882,11.3892882 95.3142857,12.0571386 95.3142857,12.9 C95.3142857,13.8857192 94.9607178,14.7321393 94.2535714,15.4392857 C93.546425,16.1464321 92.3428656,16.7071408 90.6428571,17.1214286 C90.985716,17.7785747 91.5642816,18.1071429 92.3785714,18.1071429 C92.9642886,18.1071429 93.4464267,17.9714299 93.825,17.7 C94.2035733,17.4285701 94.6428546,16.9714318 95.1428571,16.3285714 C95.3142866,16.1142846 95.5071418,16.0071429 95.7214286,16.0071429 Z M92.2071429,12.2571429 C91.6785688,12.2571429 91.2321447,12.5642826 90.8678571,13.1785714 C90.5035696,13.7928602 90.3214286,14.5357099 90.3214286,15.4071429 L90.3214286,15.45 C91.1642899,15.249999 91.828569,14.950002 92.3142857,14.55 C92.8000024,14.149998 93.0428571,13.6857169 93.0428571,13.1571429 C93.0428571,12.8857129 92.9678579,12.667858 92.8178571,12.5035714 C92.6678564,12.3392849 92.4642857,12.2571429 92.2071429,12.2571429 Z" id="bookaspace"></path>
            </g>
        </g>
    </g>
</svg>